<?xml version="1.0" encoding="UTF-8" standalone="no"?>
<!-- Created with Inkscape (http://www.inkscape.org/) -->

<svg
   xmlns:dc="http://purl.org/dc/elements/1.1/"
   xmlns:cc="http://creativecommons.org/ns#"
   xmlns:rdf="http://www.w3.org/1999/02/22-rdf-syntax-ns#"
   xmlns:svg="http://www.w3.org/2000/svg"
   xmlns="http://www.w3.org/2000/svg"
   xmlns:sodipodi="http://sodipodi.sourceforge.net/DTD/sodipodi-0.dtd"
   xmlns:inkscape="http://www.inkscape.org/namespaces/inkscape"
   version="1.1"
   id="svg812"
   width="341.33334"
   height="341.33334"
   viewBox="0 0 341.33334 341.33334"
   sodipodi:docname="quotation.svg"
   inkscape:version="0.92.4 (5da689c313, 2019-01-14)">
  <metadata
     id="metadata818">
    <rdf:RDF>
      <cc:Work
         rdf:about="">
        <dc:format>image/svg+xml</dc:format>
        <dc:type
           rdf:resource="http://purl.org/dc/dcmitype/StillImage" />
        <dc:title></dc:title>
      </cc:Work>
    </rdf:RDF>
  </metadata>
  <defs
     id="defs816" />
  <sodipodi:namedview
     pagecolor="#ffffff"
     bordercolor="#666666"
     borderopacity="1"
     objecttolerance="10"
     gridtolerance="10"
     guidetolerance="10"
     inkscape:pageopacity="0"
     inkscape:pageshadow="2"
     inkscape:window-width="1920"
     inkscape:window-height="1001"
     id="namedview814"
     showgrid="false"
     inkscape:zoom="0.69140623"
     inkscape:cx="170.66667"
     inkscape:cy="170.66667"
     inkscape:window-x="-9"
     inkscape:window-y="-9"
     inkscape:window-maximized="1"
     inkscape:current-layer="svg812" />
  <path
     style="fill:#ffffff;stroke-width:1.33333337;fill-opacity:1;stroke:none;stroke-opacity:1"
     d="m 107.87395,242.95336 c -33.411453,-9.3238 -46.217833,-55.65708 -26.635253,-96.36594 6.11248,-12.70679 19.521853,-27.88597 32.307133,-36.57112 7.07251,-4.80442 33.4549,-18.289781 35.87226,-18.336114 0.55,-0.01054 1,2.348117 1,5.241463 0,5.180091 -0.14799,5.337461 -9.66667,10.278961 -12.16758,6.31665 -26.72869,20.57978 -32.77131,32.10067 -4.15129,7.91488 -8.155823,22.44421 -8.205543,29.77157 -0.0128,1.8765 0.792643,4.52748 1.789723,5.89107 1.75324,2.3977 1.97524,2.37888 6.74995,-0.57205 6.70861,-4.14615 20.01754,-5.22324 27.80266,-2.25007 7.63441,2.9156 15.3332,10.6101 19.34533,19.33455 4.40909,9.58765 3.80946,23.57458 -1.38803,32.37706 -9.75561,16.52214 -28.16497,24.13287 -46.20025,19.09995 z m 110.79247,0.0321 c -33.6583,-9.40641 -46.52971,-55.89218 -26.68028,-96.3571 6.28363,-12.80976 19.77743,-28.15987 32.12623,-36.54579 7.14984,-4.85537 33.53998,-18.355762 35.97238,-18.402384 0.55,-0.01055 1,2.348117 1,5.241463 0,5.180091 -0.14798,5.337461 -9.66666,10.278961 -12.16759,6.31665 -26.7287,20.57978 -32.77131,32.10067 -4.15129,7.91488 -8.15583,22.44421 -8.20555,29.77157 -0.0133,1.8765 0.79264,4.52748 1.78972,5.89107 1.75324,2.3977 1.97524,2.37888 6.74996,-0.57205 6.7086,-4.14615 20.01754,-5.22324 27.80266,-2.25007 7.63441,2.9156 15.3332,10.6101 19.34532,19.33455 4.40909,9.58765 3.80946,23.57458 -1.38803,32.37706 -9.72616,16.47227 -28.17712,24.13392 -46.07444,19.13215 z"
     id="path1365"
     inkscape:connector-curvature="0"
     sodipodi:nodetypes="ssscsssccssssscsscssscccssscc" />
</svg>
